<?xml version="1.0" ?><svg viewBox="0 0 682 682" xmlns="http://www.w3.org/2000/svg" xmlns:xlink="http://www.w3.org/1999/xlink"><style>:root>svg{display:none}:root>svg:target{display:block}</style><svg viewBox="0 0 32 32" id="arrow-up" xmlns="http://www.w3.org/2000/svg"><style>.st0{display:none}.ast2{fill:#0097e2}</style><g id="aicon"><path class="ast2" d="M21 16c-.26 0-.51-.1-.71-.29L16 11.41l-4.29 4.29a.996.996 0 11-1.41-1.41l5-5a.996.996 0 011.41 0l5 5c.39.39.39 1.02 0 1.41-.2.2-.45.3-.71.3z"/><path class="ast2" d="M21 22c-.26 0-.51-.1-.71-.29L16 17.41l-4.29 4.29a.996.996 0 11-1.41-1.41l5-5a.996.996 0 011.41 0l5 5c.39.39.39 1.02 0 1.41-.2.2-.45.3-.71.3z"/></g></svg><svg viewBox="0 0 384 384" id="call" xmlns="http://www.w3.org/2000/svg"><path d="M353.188 252.052c-23.51 0-46.594-3.677-68.469-10.906-10.719-3.656-23.896-.302-30.438 6.417l-43.177 32.594c-50.073-26.729-80.917-57.563-107.281-107.26l31.635-42.052c8.219-8.208 11.167-20.198 7.635-31.448-7.26-21.99-10.948-45.063-10.948-68.583C132.146 13.823 118.323 0 101.333 0h-70.52C13.823 0 0 13.823 0 30.813 0 225.563 158.438 384 353.188 384c16.99 0 30.813-13.823 30.813-30.813v-70.323c-.001-16.989-13.824-30.812-30.813-30.812z"/></svg><svg viewBox="0 0 512 512" id="email" xmlns="http://www.w3.org/2000/svg"><path d="M339.392 258.624L512 367.744V144.896zM0 144.896v222.848l172.608-109.12zM480 80H32C16.032 80 3.36 91.904.96 107.232L256 275.264l255.04-168.032C508.64 91.904 495.968 80 480 80zM310.08 277.952l-45.28 29.824a15.983 15.983 0 01-8.8 2.624c-3.072 0-6.112-.864-8.8-2.624l-45.28-29.856L1.024 404.992C3.488 420.192 16.096 432 32 432h448c15.904 0 28.512-11.808 30.976-27.008L310.08 277.952z"/></svg><svg viewBox="0 0 24 24" id="facebook" xmlns="http://www.w3.org/2000/svg"><path d="M15.997 3.985h2.191V.169C17.81.117 16.51 0 14.996 0c-3.159 0-5.323 1.987-5.323 5.639V9H6.187v4.266h3.486V24h4.274V13.267h3.345l.531-4.266h-3.877V6.062c.001-1.233.333-2.077 2.051-2.077z"/></svg><svg viewBox="0 0 512 512" id="fauna" xmlns="http://www.w3.org/2000/svg"><path d="M378.608 290.994c-34.448-41.592-77.99-64.498-122.608-64.498s-88.161 22.906-122.607 64.498c-30.964 37.385-49.448 84.501-49.448 126.035 0 20.176 6.168 35.544 18.332 45.679 12.006 10.004 27.857 13.388 45.541 13.387 18.817 0 39.711-3.832 60.24-7.598 17.939-3.291 34.883-6.399 47.943-6.399 11.272 0 27.165 2.95 43.988 6.073 39.317 7.3 83.881 15.572 109.624-5.832 12.238-10.175 18.443-25.42 18.443-45.31.001-41.534-18.484-88.65-49.448-126.035zm11.825 148.277c-14.923 12.409-53.762 5.198-84.97-.595-18.221-3.383-35.431-6.578-49.464-6.578-15.789 0-34.036 3.348-53.356 6.892-29.931 5.49-67.181 12.324-81.165.671-1.864-1.553-7.536-6.279-7.536-22.633 0-34.246 16.306-75.208 42.553-106.899 28.645-34.586 63.983-53.634 99.503-53.634s70.858 19.048 99.503 53.634c26.248 31.691 42.553 72.653 42.553 106.899.003 15.905-5.735 20.676-7.621 22.243zM382.13 65.146c-12.604-18.583-30.652-29.239-49.517-29.239-18.866 0-36.913 10.658-49.517 29.239-11.578 17.071-17.955 39.489-17.955 63.125 0 23.636 6.376 46.054 17.955 63.125 12.604 18.582 30.652 29.24 49.517 29.24 18.866 0 36.913-10.658 49.517-29.24 11.578-17.071 17.955-39.489 17.955-63.125 0-23.636-6.376-46.055-17.955-63.125zm-24.827 109.411c-4.073 6.005-12.697 16.08-24.69 16.08-11.993 0-20.616-10.074-24.69-16.08-8.124-11.978-12.783-28.849-12.783-46.286 0-17.438 4.66-34.308 12.783-46.286 4.073-6.005 12.697-16.08 24.69-16.08 11.993 0 20.617 10.074 24.69 16.08 8.124 11.978 12.783 28.849 12.783 46.286-.001 17.437-4.659 34.308-12.783 46.286zM228.905 65.145c-12.604-18.583-30.651-29.24-49.517-29.24s-36.914 10.658-49.517 29.24c-11.578 17.071-17.955 39.489-17.955 63.125s6.376 46.054 17.955 63.125c12.604 18.583 30.651 29.241 49.517 29.241s36.913-10.658 49.517-29.241c11.578-17.071 17.955-39.488 17.955-63.125-.001-23.636-6.377-46.055-17.955-63.125zm-24.829 109.412c-4.073 6.005-12.697 16.08-24.689 16.08-11.993 0-20.617-10.075-24.69-16.08-8.124-11.978-12.783-28.849-12.783-46.286 0-17.438 4.66-34.308 12.783-46.286 4.073-6.005 12.697-16.08 24.69-16.08s20.616 10.074 24.689 16.08c8.124 11.978 12.783 28.849 12.783 46.286s-4.659 34.308-12.783 46.286zM509.019 210.133c-5.081-17.284-15.972-29.843-30.665-35.362-11.824-4.441-25.171-3.688-37.583 2.121-17.105 8.004-31.086 24.532-38.356 45.345-5.941 17.008-6.682 34.985-2.085 50.622 5.081 17.284 15.972 29.843 30.666 35.362 5.085 1.91 10.45 2.859 15.902 2.859 7.227 0 14.607-1.669 21.682-4.98 17.105-8.004 31.086-24.532 38.356-45.344v-.001c5.94-17.007 6.681-34.985 2.083-50.622zm-30.405 40.729c-4.556 13.041-13.061 23.533-22.75 28.067-3.563 1.666-8.938 3.229-14.32 1.208-12.988-4.879-18.04-27.313-10.81-48.007 4.556-13.041 13.061-23.533 22.751-28.068 2.362-1.105 5.52-2.164 8.948-2.164 1.744 0 3.558.274 5.371.955 12.988 4.88 18.04 27.314 10.81 48.009zM109.587 222.235c-7.271-20.813-21.252-37.34-38.356-45.344-12.413-5.809-25.761-6.561-37.584-2.121-14.694 5.52-25.585 18.079-30.666 35.362-4.597 15.637-3.856 33.615 2.085 50.622v.001c7.272 20.813 21.252 37.34 38.356 45.344 7.076 3.311 14.455 4.98 21.682 4.98 5.452 0 10.818-.95 15.902-2.859 14.696-5.52 25.586-18.079 30.667-35.362 4.595-15.636 3.854-33.614-2.086-50.623zm-39.131 57.902c-5.381 2.021-10.757.458-14.319-1.208-9.689-4.534-18.195-15.026-22.75-28.067v.001c-7.229-20.695-2.178-43.128 10.81-48.008 5.38-2.021 10.757-.458 14.32 1.208 9.69 4.535 18.195 15.027 22.75 28.067 7.229 20.695 2.177 43.128-10.811 48.007z"/></svg><svg viewBox="0 0 24 24" id="fb" xmlns="http://www.w3.org/2000/svg"><path d="M15.997 3.985h2.191V.169C17.81.117 16.51 0 14.996 0c-3.159 0-5.323 1.987-5.323 5.639V9H6.187v4.266h3.486V24h4.274V13.267h3.345l.531-4.266h-3.877V6.062c.001-1.233.333-2.077 2.051-2.077z"/></svg><svg viewBox="0 0 512 512" id="file" xmlns="http://www.w3.org/2000/svg"><path d="M32 456c.025 22.081 17.919 39.975 40 40h296c61.851.006 111.996-50.129 112.002-111.98.004-43.264-24.912-82.66-64.002-101.199V120a8 8 0 00-2.343-5.657l-96-96A8 8 0 00312 16H72c-22.081.025-39.975 17.919-40 40zm432-72c0 53.019-42.981 96-96 96s-96-42.981-96-96 42.981-96 96-96c52.995.06 95.94 43.005 96 96zM320 43.313L388.687 112H344c-13.249-.015-23.985-10.751-24-24zM48 56c.015-13.248 10.752-23.985 24-24h232v56c.025 22.081 17.919 39.975 40 40h56v148.666c-59.265-17.683-121.643 16.025-139.327 75.289-14.627 49.023 5.828 101.725 49.696 128.045H72c-13.248-.015-23.985-10.752-24-24z"/><path d="M160 168a8 8 0 008 8h192a8 8 0 000-16H168a8 8 0 00-8 8zM88 224h160a8 8 0 000-16H88a8 8 0 000 16zM280 256h-64a8 8 0 000 16h64a8 8 0 000-16zM88 320h144a8 8 0 000-16H88a8 8 0 000 16zM88 176h48a8 8 0 000-16H88a8 8 0 000 16zM360 208h-80a8 8 0 000 16h80a8 8 0 000-16zM88 272h96a8 8 0 000-16H88a8 8 0 000 16zM216 400h-32a8 8 0 000 16h32a8 8 0 000-16zM88 416h64a8 8 0 000-16H88a8 8 0 000 16zM88 368h48a8 8 0 000-16H88a8 8 0 000 16zM88 128h96a8 8 0 000-16H88a8 8 0 000 16zM216 352h-48a8 8 0 000 16h48a8 8 0 000-16zM322.879 329.854a8 8 0 00-1.025 11.268s30.333 36.449 39.97 47.964c.971 1.161 2.556 2.512 5.331 2.87.28.036.563.044.845.044h56a8 8 0 000-16h-52.253l-37.6-45.122a8 8 0 00-11.268-1.024z"/></svg><svg viewBox="0 0 512 512" id="flora" xmlns="http://www.w3.org/2000/svg"><path d="M510.052 291.984a10.201 10.201 0 00-.089-.919L484.3 112.497a10.003 10.003 0 00-13.63-7.857l-118.103 47.482c-5.125 2.06-7.608 7.885-5.549 13.009 2.061 5.126 7.887 7.609 13.01 5.549l106.284-42.731 23.681 164.776c.013.464.059.93.138 1.396 5.178 30.482-.491 62.025-15.96 88.819-17.815 30.856-46.613 52.909-81.092 62.096-34.488 9.19-70.529 4.409-101.487-13.463-.214-.124-.434-.228-.653-.334a181.18 181.18 0 0018.703-16.347l117.078-31.371c5.336-1.429 8.502-6.914 7.072-12.249-1.429-5.335-6.917-8.502-12.248-7.072l-90.086 24.138c9.899-14.726 17.643-30.966 22.935-48.341l80.372-21.535c5.336-1.429 8.502-6.914 7.072-12.249-1.429-5.335-6.917-8.502-12.248-7.072l-59.138 15.846 22.238-38.519 46.995-12.592c5.336-1.429 8.502-6.914 7.072-12.249-1.43-5.335-6.917-8.502-12.248-7.072l-27.675 7.416 21.28-36.859c2.762-4.784 1.123-10.9-3.66-13.661-4.784-2.762-10.9-1.123-13.661 3.66l-21.28 36.858-7.416-27.675c-1.43-5.335-6.915-8.502-12.248-7.072-5.336 1.429-8.502 6.914-7.072 12.249l12.592 46.995-13.012 22.538c.384-32.013-7.807-63.649-24.224-92.083-20.673-35.806-53.298-63.614-91.906-78.346l-.192-.081-45.252-18.366a10 10 0 00-13.027 5.506c-2.077 5.119.388 10.951 5.506 13.028l44.84 18.198c.203.093.41.179.62.259 34.489 13.061 63.643 37.85 82.089 69.801 21.472 37.192 27.136 80.543 15.948 122.071-10.321 38.306-33.847 70.82-66.707 92.544l-16.784-29.07 36.387-135.796c1.43-5.336-1.736-10.819-7.072-12.249a10 10 0 00-12.248 7.072L239.125 367.97l-37.026-64.131 25.244-94.208c1.43-5.336-1.736-10.819-7.072-12.249-5.337-1.43-10.818 1.737-12.248 7.072l-20.066 74.888-29.187-50.553 15.203-56.735c1.43-5.336-1.736-10.819-7.072-12.249a10 10 0 00-12.248 7.072l-10.027 37.415-27.65-47.892c-2.761-4.783-8.878-6.423-13.661-3.66-4.784 2.761-6.423 8.878-3.66 13.661l27.65 47.891-37.414-10.025c-5.337-1.43-10.818 1.737-12.248 7.072-1.43 5.336 1.736 10.819 7.072 12.249l56.734 15.203 29.187 50.553-74.886-20.065c-5.337-1.43-10.818 1.737-12.248 7.072-1.43 5.336 1.736 10.819 7.072 12.249l94.206 25.243 37.026 64.131-116.475-31.209c-5.338-1.43-10.818 1.737-12.248 7.072-1.43 5.336 1.736 10.819 7.072 12.249l135.795 36.386 16.782 29.067c-75.574 37.666-168.581 10.538-211.238-63.345-18.646-32.296-25.478-70.316-19.237-107.057.085-.496.13-.991.138-1.484L50.952 60.908l66.251 26.889a9.998 9.998 0 0013.027-5.506c2.077-5.119-.388-10.951-5.506-13.028L46.632 37.567a10 10 0 00-13.66 7.845L2.408 258.086a9.897 9.897 0 00-.093 1.01c-6.638 40.917 1.104 83.157 21.853 119.095 33.413 57.875 94.294 90.246 156.878 90.245 27.641 0 55.609-6.339 81.693-19.56l12.291 21.288a9.999 9.999 0 0013.662 3.661c4.784-2.761 6.423-8.878 3.66-13.661l-4.557-7.894c22.098 11.472 46.201 17.341 70.592 17.341 13.29 0 26.666-1.737 39.843-5.248 39.65-10.566 72.773-35.932 93.264-71.423 17.589-30.464 24.161-66.268 18.558-100.956z"/><path d="M165.258 86.561a10.072 10.072 0 00-7.07-2.93c-2.631 0-5.211 1.07-7.071 2.93a10.094 10.094 0 00-2.93 7.071c0 2.64 1.069 5.211 2.93 7.081a10.072 10.072 0 007.071 2.93c2.63 0 5.211-1.07 7.07-2.93a10.077 10.077 0 002.931-7.081c0-2.63-1.061-5.201-2.931-7.071zM443.884 174.367l-.06-.082c-3.246-4.469-9.501-5.461-13.969-2.215-4.469 3.245-5.462 9.5-2.216 13.968l.06.081a9.99 9.99 0 008.101 4.125 9.964 9.964 0 005.869-1.909c4.468-3.245 5.46-9.499 2.215-13.968z"/></svg><svg data-name="Layer 1" viewBox="0 0 512 512" id="grib" xmlns="http://www.w3.org/2000/svg"><path d="M511.665 163.135c2.992-40.448-13.95-79.818-47.706-110.857-33.24-30.564-78.938-49.424-128.678-53.1S237.567 7.423 200.19 32.764c-37.957 25.733-60.508 62.181-63.5 102.629-2.065 27.921 30.406 46.073 58.01 56.383 20.235 7.558 44.987 13.756 72.294 18.213l-37.862 244.275a48 48 0 0043.89 55.236l48.742 2.459q1.83.135 3.642.135c12.05 0 23.4-3.317 32.273-11.622a49.751 49.751 0 0015.588-37.213l-1.55-245.516c27.7-.387 53.125-2.87 74.272-7.372 28.822-6.14 63.611-19.315 65.676-47.236zM346.748 488.786c-6.466 6.049-14.911 7.87-23.8 7.214l-40.211-1.828 13.188-93.05-15.842-2.245-13.216 93.255a32.023 32.023 0 01-21.92-35.415l37.878-244.38q10.022 1.344 20.384 2.377l-7.156 64.4 15.9 1.767 7.2-64.783.083.006c12.4.918 24.6 1.44 36.484 1.613l1.551 245.646a33.932 33.932 0 01-10.523 25.423zM320.412 200.15c-46.292-3.425-88.949-11.722-120.114-23.362-31.77-11.867-48.692-26.148-47.651-40.214C157.8 66.905 230.319 14.525 317.771 14.525q8.084 0 16.33.6c94.582 7 167.079 72.863 161.606 146.824-1.04 14.066-19.881 25.7-53.051 32.764-32.537 6.933-75.949 8.863-122.244 5.437z"/><path d="M54.869 364.474a175.006 175.006 0 0022.123 1.3c6.074 0 12.429-.265 18.977-.772l9.807 110.077a40.014 40.014 0 0047.577 35.657l24.439-4.819a40 40 0 0030.479-51.05l-32.954-106.589a192.685 192.685 0 0030.219-13.512c29.706-16.889 33.319-33.731 31.12-44.886-5.5-27.912-22.605-51.757-48.155-67.141-25.3-15.232-55.9-20.336-86.149-14.369C39.6 220.743-2.263 277.442 9.039 334.761c2.199 11.154 11.936 25.364 45.83 29.713zM192.986 459.6a24 24 0 01-18.286 30.624l-23.771 4.688-6.988-55.9-15.877 1.984 6.476 51.8a24.589 24.589 0 01-3.314-2.094 23.713 23.713 0 01-9.51-17.045l-9.83-110.33a327.415 327.415 0 0020.362-3.35 321.052 321.052 0 0027.847-6.777zm-87.539-235.533a111.672 111.672 0 0121.607-2.127 102.862 102.862 0 0153.192 14.506c21.635 13.026 36.093 33.1 40.712 56.529 3.533 17.92-36.794 40.455-91.809 51.3s-100.88 5.308-104.414-12.612C15.142 283 51.349 234.734 105.447 224.067z"/></svg><svg viewBox="0 0 512 512" id="insta" xmlns="http://www.w3.org/2000/svg"><path d="M352 0H160C71.648 0 0 71.648 0 160v192c0 88.352 71.648 160 160 160h192c88.352 0 160-71.648 160-160V160C512 71.648 440.352 0 352 0zm112 352c0 61.76-50.24 112-112 112H160c-61.76 0-112-50.24-112-112V160C48 98.24 98.24 48 160 48h192c61.76 0 112 50.24 112 112v192z"/><path d="M256 128c-70.688 0-128 57.312-128 128s57.312 128 128 128 128-57.312 128-128-57.312-128-128-128zm0 208c-44.096 0-80-35.904-80-80 0-44.128 35.904-80 80-80s80 35.872 80 80c0 44.096-35.904 80-80 80z"/><circle cx="393.6" cy="118.4" r="17.056"/></svg><svg version="1.0" viewBox="0 0 500 500" id="logo" xmlns="http://www.w3.org/2000/svg"><path d="M181.2 9c-6.7 1-20 3.5-29.5 5.4-9.4 2-20.6 4.2-24.7 5.1-4.1.8-10 2.2-13 3-3 .8-12.2 3.3-20.5 5.6C85.3 30.3 76 33 73 34s-13.6 4.4-23.5 7.6C23 50 17.2 52.1 14.4 54.2L12 56.1v329.6l2.3 3.3c2.2 3.3 10.3 8.4 30.2 18.9 5.5 3 17.8 9.6 27.2 14.8 9.5 5.2 21.9 11.5 27.5 13.9 5.7 2.5 12.8 5.7 15.8 7.1 20.4 9.5 43.8 18.8 86.5 34.3 32.9 12.1 44.9 15 60.5 15 8.7 0 10.9-.4 19.6-3.6 5.5-1.9 12.4-4.4 15.4-5.4 11.2-3.7 27.7-9.7 32.4-11.8 2.7-1.2 5.3-2.2 5.7-2.2.5 0 6.7-2.5 13.7-5.6 7-3 15.4-6.6 18.7-8 12.6-5.3 15.3-6.4 24-10.2 5-2.2 14.2-6.4 20.5-9.5 6.3-3 14.9-6.9 19-8.7 16.9-7.3 44-22.1 55.8-30.5l2.2-1.6V220.6c0-169.4-.1-175.3-1.9-177-2-1.8-6.8-3.3-35.6-11-25.4-6.8-42.6-10.7-64-14.6-9.3-1.7-24.9-4.6-34.5-6.4l-17.5-3.4-71-.5c-65.8-.5-71.9-.4-83.3 1.3zm152.3 11.5c30.7 4.2 67.4 11.4 107 21 25.2 6 32.6 8.9 35.1 13.6 1.2 2.4 1.4 26.9 1.4 166.6 0 105.6-.4 165.1-1 167.4-1.3 4.7-6.1 8.5-19.2 15.1-13.1 6.7-31.5 15.4-34.8 16.3-3.5 1-9.9 3.8-21.5 9.5-12.9 6.2-29.9 13.6-35 15.1-2.2.6-5.1 1.7-6.5 2.5-4.1 2.1-29.3 13.1-31.5 13.7-1.1.3-5.8 2-10.5 3.7-4.7 1.7-10.9 3.8-13.8 4.6-2.9.8-6.7 2.1-8.4 3-4.5 2.3-13.2 5.3-22 7.5-6.8 1.6-9.3 1.8-19 1-11.2-1-24.2-4.2-31.8-8.1-1.9-1-5.5-2.5-8-3.3-2.5-.9-10.6-3.9-18-6.8-7.4-2.8-18.9-7.1-25.5-9.6-6.6-2.4-18.7-7.3-27-10.8-8.2-3.5-19.3-8-24.5-10-5.2-2-10.8-4.5-12.5-5.4-1.6-1-4.6-2.4-6.5-3.2-1.9-.7-8-3.8-13.5-6.9-5.5-3.1-12.2-6.8-15-8.2-2.7-1.4-8.8-4.7-13.5-7.2-4.7-2.6-13.4-7.2-19.5-10.2-6-3.1-11.8-6.2-12.7-7.1-1.6-1.4-1.7-11.8-1.8-161.8 0-126.9.3-160.5 1.3-161.2 1.5-1.2 17.6-7.7 28.7-11.5 4.7-1.6 19.5-5.8 33-9.3 13.5-3.5 26.3-7 28.5-7.8 8.2-3.2 53.5-11 70.5-12.3 13.1-.9 89.7-2 116-1.6 11.8.2 26 .9 31.5 1.7z"/><path d="M222.5 32c-29.6.9-52.6 3-62.5 5.9-1.9.6-8.9 2-15.5 3.1-11.3 2-31.9 6.6-48.5 10.9-4.1 1.1-10.2 2.6-13.5 3.5-11.3 2.8-21.9 6.4-22.2 7.3-.2.6 3.5 4.8 8.2 9.4 4.8 4.6 18 17.8 29.3 29.3 21.7 21.8 29.7 29.7 37.2 36.2 2.4 2.1 7.4 6.8 11.1 10.4 14.2 13.9 16.9 16 19.9 16 1.6 0 3.2-.5 3.5-1 2.4-3.8 35.2-15.4 51.5-18.2 10.2-1.7 58.7-1.7 69.5 0 4.4.7 10.6 2.2 13.8 3.3 3.1 1 6.4 1.9 7.2 1.9.8 0 6.7 2 13.1 4.5C331 157 337 159 338 159c1.1 0 4-2.5 6.7-5.6 2.6-3.1 6.7-7.6 9.1-10 3.6-3.7 18.2-20.4 32.7-37.3 6.2-7.2 19.9-22.6 29.4-33 4.7-5.1 9-10.1 9.5-11 .6-.9 2-2.7 3.3-4.1 4.2-4.6 3.8-4.9-10.2-8.6-25.2-6.7-50.8-11.4-86-15.8-14.7-1.8-71.4-2.6-110-1.6zm4.7 8.7l2.1 4.8 2-4.8c1.7-4.2 2.3-4.7 5.1-4.7h3.2l-.4 7c-.3 4.2 0 7.5.7 8.4 1.5 1.8.4 2.6-3.9 2.6-4.2 0-5.4-.8-3.9-2.6.6-.7.9-3 .7-5.1l-.3-3.8-2 5.5c-1.1 3-2.4 5.5-2.9 5.5-.4 0-1.9-2.7-3.1-6l-2.4-6v4.7c-.1 2.7.4 4.8.9 4.8.6 0 1 .7 1 1.5 0 1-1 1.5-3 1.5s-3-.5-3-1.5c0-.8.5-1.5 1-1.5.6 0 1-2.8 1-6.5s-.4-6.5-1-6.5c-.5 0-1-.5-1-1 0-.6 1.6-1 3.6-1 3.2 0 3.7.4 5.6 4.7zm21.7-3.5c-.1.7.3 2.6 1 4.2l1.2 3 1.9-3c1.1-1.6 1.5-3.1 1-3.2-2.2-.8-.8-2.2 2-2.2 1.7 0 3 .4 3 1 0 .5-.4 1-1 1-.5 0-1.8 1.7-2.9 3.8-1.8 3.5-1.8 3.9-.3 4.9 1.5 1 1.5 1.2-.6 2s-2.2 1.1-.8 2.2c2.4 2 1 3.1-4 3.1-4.1 0-5.7-1.1-3.4-2.5 1.5-.9 1.2-2.5-.5-2.5-.8 0-1.5-.7-1.5-1.5s.5-1.5 1-1.5c1.6 0 1.2-1.4-1.5-5.4-1.4-2-2.5-3.9-2.5-4.1 0-.3 1.8-.5 4-.5 2.7 0 4 .4 3.9 1.2zm26.1 1.3c0 1.4-.4 2.5-1 2.5-.5 0-1-.5-1-1 0-.6-.7-1-1.5-1-1.2 0-1.5 1.3-1.5 5.9 0 3.3.5 6.3 1 6.6 2 1.2-.1 2.5-4.1 2.5-2.8 0-3.9-.4-3.9-1.5 0-.8.5-1.5 1-1.5.6 0 1-2.7 1-6 0-6.1-1.1-7.5-3.8-4.8-.9.9-1.2.6-1.2-1.5 0-2.7 0-2.7 7.5-2.7 7.3 0 7.5.1 7.5 2.5zm20-1.5c0 .5-.4 1-1 1-1.3 0-1.3 12.7 0 13.5 2.5 1.5-.7 2.4-9 2.4-8.2 0-10.7-.7-8-2.4.6-.3 1-3.5 1-7.1 0-3.6-.4-6.4-1-6.4-.5 0-1-.5-1-1 0-.6 3.8-1 9.5-1s9.5.4 9.5 1zM190.3 68.5c-.7 4.4.9 4.5 2.8.2 1.8-4.1 6.2-4.6 6.7-.8.3 2.1 0 2.3-2.2 1.9-1.8-.4-2.6 0-2.9 1.1-.4 2 2.8 8.8 4.5 9.4 1 .3 1 .7.1 1.7-1.9 2-5.8.4-7.5-3.2-1.3-2.6-1.7-2.9-1.7-1.3-.1 1.2.4 2.6 1 3.2.9.9.6 1.3-1.4 1.8-3.9 1-6.2.2-5.9-2 .7-5.4.8-11.2.1-13.3-.8-2-.6-2.2 3.1-2.2h3.9l-.6 3.5zm26.4-1.3c3.6 3.4 3.2 9.8-.8 13.2-4.1 3.5-8.3 3.4-12-.3-3.8-3.8-3.9-8.5-.4-12.4 3.3-3.5 9.7-3.8 13.2-.5zM229 66c0 .5-.4 1-1 1-.5 0-1 1.1-1 2.5 0 3.6 1.7 3.1 3.4-1 1.1-2.6 2.1-3.5 3.9-3.5 2.5 0 4.2 2.3 3.1 4.2-.3.5-1.5.8-2.5.5-3.8-1-3.9 2.3-.3 7.5 2.7 3.8 3.1 5 2 5.4-2.9 1.1-5.1-.2-7.1-4.1-1.8-3.6-2-3.8-2.3-1.6-.2 1.3.2 2.7.8 3.1 2.1 1.3.1 3-3.5 3-3.4 0-5.4-1.4-3.5-2.5 1.4-.9 1.3-12.8-.2-14.3-.9-.9-.2-1.2 3.5-1.2 2.6 0 4.7.4 4.7 1zm17.2 6.5c-.3 6.5-.1 7.5 1.3 7.5 1.5 0 1.7-1 1.3-7.5l-.3-7.5h6l-.3 7.5c-.4 7.1-.3 7.5 1.7 7.5 1.9 0 2.1-.6 2.1-6.3 0-3.6-.5-6.8-1.2-7.5-.9-.9-.3-1.2 2.8-1.2h3.9l-.1 8.7-.1 8.8h-23.6l-.1-8.7-.1-8.8h7l-.3 7.5zM280 68c0 3.5-1 3.8-2.8 1-1.8-3-4.2-2.5-4.2.7.1 2.5.2 2.6 1.4 1 2-2.6 2.6-2.1 2.6 2.1 0 4.7-.9 5.8-2.6 3.4-1.2-1.5-1.3-1.4-1.4 1 0 1.8.5 2.8 1.4 2.8 2.5 0 4.6-1.2 4.6-2.6 0-.8.5-1.4 1.1-1.4.6 0 .9 1.4.7 3.2-.3 3.3-.3 3.3-6.3 3.5-3.3.1-6.8-.1-7.8-.4-1.7-.4-1.7-.6-.2-2.3 1.7-1.9 2-11.6.3-12.6-2.4-1.5 0-2.4 6.2-2.4h7v3zm18 .2l-.1 3.3-1.8-2.3c-1.1-1.2-2.2-2.2-2.5-2.2-1.2 0-.6 12.8.6 13.2 2.5.9-.5 2.8-4.3 2.8-2.8 0-3.9-.4-3.9-1.5 0-.8.5-1.5 1-1.5.6 0 1-2.8 1-6.5 0-6.9-.8-7.9-3.3-4.3-1.6 2.3-1.6 2.3-1.6-1L283 65h15v3.2zm11 .2c0 .6 1.4 3.8 3 7.1s2.5 6.4 2.1 6.8c-.5.5-2.1.7-3.7.5-2.1-.2-2.9-.8-2.9-2.3 0-1.4-.8-2.1-2.7-2.3-2.9-.3-3.6.6-1.7 2.5.8.8.5 1.3-1.1 1.8-4 1.3-4-.9.1-9.3 3.3-7 4.2-8.2 5.5-7.2.7.7 1.4 1.8 1.4 2.4zm12.7-2c-.3.7.3 2.5 1.2 4l1.8 2.6 1.1-2.5c.6-1.3.9-3.2.6-4-.5-1.1.1-1.5 2-1.5 1.4 0 2.6.2 2.6.4s-1.8 4-4.1 8.4c-4.3 8.5-6.9 10.6-9.6 7.9-1.9-1.9-.7-4 1.8-3.4 2.6.7 2.4 0-1.6-6.7-1.9-3.2-3.5-6-3.5-6.2 0-.2 1.8-.4 4.1-.4 3.1 0 4 .4 3.6 1.4zm-145.9 6.1c-.6 3.1-.5 3.1 2.6-.2 3-3.3 4-2.7 2.5 1.5-.7 2.2-.7 3.6 0 5.1 2.2 4 .8 4.2-3.2.5l-2.8-2.6.7 2.6c.8 3.2-.2 3.3-3.3.4-2.9-2.7-2.9-3.6.4-7s3.7-3.5 3.1-.3zm159.1.4c2.7 3.7 2.6 4.3-.4 7.1s-4.3 2-2.6-1.6c.8-1.9.9-3 .1-3.8-1.3-1.3-1.3-4.6-.1-4.6.5 0 1.9 1.3 3 2.9zm5.6.1l2.9 3-3.2 3.2c-3.5 3.6-5.3 3.1-3.2-.8 1.1-2 1.2-2.9.2-4.4-2.9-4.7-.8-5.3 3.3-1zM235 96.5c0 2.9-.5 3.1-2.7 1-.8-.9-2.3-1.5-3.2-1.3-2 .4-2.9 11.2-1 13.4 1 1.2.3 1.4-4.1 1.4-4.5 0-5.1-.2-4-1.5.8-1 1.1-3.9.8-8.5l-.4-7h7.3c7.1 0 7.3.1 7.3 2.5zm19-1.5c0 .5-.4 1-1 1s-1 2.8-1 6.4c0 4.9.4 6.5 1.6 7 .9.3 2 .4 2.5 0 1.2-.7 1.2-13.4-.1-13.4-.5 0-1-.5-1-1 0-.6 3.9-1 9.7-1 9.2 0 9.5.1 8 1.8-2.2 2.5-2.3 11.4-.2 13.2 2.7 2.3 3.8-.2 3.3-7.9l-.4-7.1h8.8c5.2 0 8.8.4 8.8 1 0 .5-.4 1-1 1s-1 2.8-1 6.5.4 6.5 1 6.5 1 .4 1 1-10.4 1-29.2 1c-28.1 0-29.1-.1-27.5-1.8 1.9-2.1 2.4-13.2.7-13.2-.5 0-1-.5-1-1 0-.6 3.7-1 9-1s9 .4 9 1zm-62 29c0 .5-.4 1-1 1-.5 0-1 1.1-1 2.5 0 3.6 1.7 3.1 3.4-1 1.6-3.7 4.4-4.6 6.4-2.2 1.6 1.9-.2 4-2.7 3.2-3-.9-2.8 2.6.4 8.2l2.6 4.3h-3c-2.2 0-3.4-.8-5-3.3-1.7-2.6-2.1-2.8-2.1-1.2 0 1.2.5 2.6 1.2 3.3.9.9.1 1.2-3.7 1.2-3.8 0-4.6-.3-3.7-1.2 1.5-1.5 1.6-13.8.1-13.8-.5 0-.7-.5-.4-1 .3-.6 2.4-1 4.6-1 2.1 0 3.9.4 3.9 1zm24.5 1.5c4.8 4.7 2.1 13.5-4.6 15-6.2 1.4-11.3-3-11.1-9.7.2-7.2 10.5-10.6 15.7-5.3zM229 124c0 .5-.4 1-1 1-.5 0-1 1.2-1 2.6 0 3.2 2.2 2.7 3-.6.7-2.9 3.2-4.5 5.4-3.7 2.5 1 1.5 4.3-1.1 4-3.3-.4-3.4 2.9-.2 8.1l2.9 4.6h-3c-2.4 0-3.3-.7-4.9-3.8l-2-3.7-.1 3.2c0 1.7.6 3.4 1.3 3.6.6.3-1 .6-3.7.6-3.9.1-4.7-.2-3.8-1.1 1.5-1.5 1.6-13.8.2-13.8-.5 0-1-.5-1-1 0-.6 2-1 4.5-1s4.5.4 4.5 1zm16.2 6.5c-.4 7.2-.3 7.5 1.8 7.5s2.2-.3 1.8-7.5l-.3-7.5h6l-.3 7.5c-.4 6.6-.2 7.5 1.3 7.5s1.7-.9 1.3-7.5l-.3-7.5h3.7c3.6 0 4.9 1.2 2.8 2.5-1.3.8-1.3 10.1 0 12.6 1 1.8.6 1.9-11.2 1.9h-12.3v-17h6l-.3 7.5zm34.6-4.3c.4 3.1-.5 3.6-2.2 1.4-1.9-2.5-5.1-2.4-5.4.1-.4 2.7.6 2.9 2.4.5 1.2-1.5 1.3-1.1 1.3 3.3s-.1 4.8-1.3 3.2c-1.8-2.4-2.6-2.1-2.6.8 0 2 .5 2.5 2.4 2.5 1.4 0 3.1-.9 3.9-2.1 1.7-2.4 3.2-1 2.2 2.1-.6 1.7-1.5 2-7.3 2h-6.7v-17.1l6.5.3c6.3.3 6.5.4 6.8 3zm18.2-.2c0 3.2-1.4 4-2.4 1.5-.3-.8-1-1.5-1.6-1.5-1.5 0-1.3 12.7.3 13.3.6.3-1.3.5-4.3.5s-4.9-.2-4.2-.5c1.5-.6 1.7-13.3.2-13.3-.6 0-1.3.7-1.6 1.5-1 2.5-2.4 1.7-2.4-1.5v-3h16v3zm11.1 1.7c1 2.7 2.9 6.5 4 8.5l2 3.8h-4.7c-3.8 0-4.4-.3-3.5-1.3 1.4-1.7.4-2.7-2.7-2.7-1.9 0-2.3.4-1.9 2 .4 1.6 0 2-2.2 2h-2.7l4.1-8.5c2.2-4.6 4.4-8.4 4.8-8.5.4 0 1.7 2.1 2.8 4.7zm12.5-2.9c-.7 2.1 1.7 5.8 3.1 4.9 1.4-.9 2.3-4.7 1.1-4.7-.5 0-.6-.5-.3-1 .6-1 5.5-1.4 5.5-.5 0 .3-1 2.2-2.3 4.3-1.3 2-2.9 5.1-3.6 6.9-1.8 4.4-4.5 6.6-7 5.8-2.3-.7-2.8-3.9-.9-5.1.6-.4 1.7.1 2.5 1.1 2.8 4 1.2-1.1-2.2-6.8-1.9-3.2-3.5-6-3.5-6.3 0-.2 1.8-.4 4.1-.4 3.4 0 3.9.3 3.5 1.8zm-145.7 6.5c-1 1.8-.6 1.7 2-.7 3.5-3.3 5-2.9 3.3.9-.8 1.7-.8 3.3-.1 5.1 1.4 3.9.3 4.2-3.2.8-2.6-2.4-2.9-2.5-2-.7 1.4 2.8 1.4 3.3-.2 3.3-.7 0-2.4-1.4-3.6-3.1l-2.3-3.1 2.8-2.9c3-3.2 5-2.9 3.3.4zm158.5-.4l2.8 3-2.1 3c-1.3 1.7-2.9 3.1-3.7 3.1-1.8 0-1.8-1.1 0-3.5 1.2-1.7 1.2-2.3 0-4.7-2.5-4.9-1.2-5.3 3-.9zm6.7 1.2c.9 1.7.7 2.6-.8 4.7-1.1 1.4-2.5 2.8-3.1 3-1.5.5-1.6-3-.1-4.5.8-.8.8-1.7 0-3.1-.6-1.1-1.1-2.6-1.1-3.2 0-1.7 3.7.6 5.1 3.1z"/><path d="M284.2 45.2c.2 3.5.8 6.3 1.3 6.3.6 0 1.1-2.8 1.3-6.3.2-5.1 0-6.2-1.3-6.2s-1.5 1.1-1.3 6.2zM208.2 68.2c-2.3 2.3-1.3 3.8 2.3 3.8 3.1 0 3.4-.2 2.6-2.3-1-2.6-3.1-3.3-4.9-1.5zM207.2 77.2c.4 2.9 3.7 3.6 5.5 1.2 2-2.8 1.6-3.4-2.3-3.4-3.1 0-3.5.3-3.2 2.2zM243.6 95.7c-.3.4-.6 1.7-.6 3 0 1.6.6 2.3 2 2.3s2-.7 2-2.4c0-2.3-2.2-4.1-3.4-2.9zM262.2 102.7c.2 5.3.6 6.8 1.8 6.8 1.2 0 1.6-1.5 1.8-6.8.3-6.2.1-6.7-1.8-6.7-1.9 0-2.1.5-1.8 6.7zM281.2 102.7c.3 6 .5 6.8 2.3 6.8 1.8 0 2-.8 2.3-6.8.3-6.6.3-6.7-2.3-6.7-2.6 0-2.6.1-2.3 6.7zM243.2 106.7c.2 1.7.9 2.8 1.8 2.8s1.6-1.1 1.8-2.8c.3-2.2-.1-2.7-1.8-2.7s-2.1.5-1.8 2.7zM208.4 125.8c-1.8 1.1-2.6 6.6-1.4 9.6.7 2 1.6 2.7 3.3 2.4 1.9-.3 2.2-1 2.5-5.7.2-3.7-.1-5.7-1-6.2-1.6-1.1-2-1.1-3.4-.1zM304 132c0 .5.5 1 1.1 1 .5 0 .7-.5.4-1-.3-.6-.8-1-1.1-1-.2 0-.4.4-.4 1zM442.8 59.3c-1.5 1.2-5.9 6.2-9.9 11.2-4 4.9-10.2 12.4-13.8 16.5-3.6 4.1-7 8.1-7.6 8.8-.5.7-3.2 3.6-5.8 6.5-2.7 2.8-6.5 7.2-8.5 9.7-2 2.5-5.9 7-8.7 10-2.7 3.1-7.9 8.9-11.5 12.9-3.6 4.1-8.2 9.2-10.4 11.5-5.6 6-16.6 19.7-16.6 20.7 0 .4 2.6 3.3 5.7 6.4 3.8 3.7 6.5 5.5 8.1 5.5 1.4 0 5.7-2 9.6-4.4 3.9-2.4 10-6 13.6-8 3.6-2 10.6-6.2 15.5-9.2 5-2.9 10.1-5.9 11.5-6.5 2.3-1 9.7-5.2 30.5-17.5 5-2.9 10.4-6.4 12-7.8l3-2.4.3-31.6.3-31.5-3.7-1.6c-5.3-2.2-10.4-1.9-13.6.8zM40.7 69.7c-.4.3-.7 14.5-.7 31.4 0 29.8.1 30.9 2.1 32.7 1.1 1.1 9.5 5.8 18.7 10.4 29.4 15 42.7 21.9 44.3 23.4.8.8 1.9 1.4 2.3 1.4.8 0 15.6 7.2 18.6 9 2.8 1.7 10.4 5 11.4 5 .6 0 3-1.7 5.3-3.8 2.3-2 5.1-4.5 6.2-5.5 2-1.6 2-1.9.7-4.6-2.3-4.3-14.9-17.4-27.2-28.1-6-5.2-23.7-22.1-39.4-37.5-31.4-30.9-39.1-37.1-42.3-33.8zM457.1 140.1c-1.3.5-6.7 3.6-12 6.8-5.3 3.2-12.9 7.5-17 9.5-4.1 2.1-8.6 4.5-10 5.5-1.4 1-9.8 5.8-18.6 10.6-16.2 9-20.2 11.4-24.2 14.9l-2.3 1.9 4.2 7.6c7.9 14.5 7.8 14.4 17.5 11.2 6-2 18.2-5.7 36.3-11.1 5.8-1.8 12-3.8 13.8-4.6 1.8-.7 4.9-1.7 7-2 2.1-.3 4.8-1.3 6-2.3 2.2-1.6 2.2-1.9 2-25.2l-.3-23.6-2.4.8zM40.4 151.4c-.3.8-.4 10.6-.2 21.8l.4 20.3 4 2c4.1 2 14.1 5 38.9 11.5 8.3 2.1 16.9 4.6 19.2 5.4 2.4.8 6.9 1.8 10.1 2.2l5.8.6 1.7-3.8c.9-2.2 3.3-6.8 5.3-10.3l3.7-6.4-2.4-1.8c-1.3-1.1-17-9.1-34.9-18s-36.4-18.1-41.2-20.5c-4.8-2.4-8.9-4.4-9.3-4.4-.3 0-.8.6-1.1 1.4zM224.2 155.6c-43.9 6.4-75.9 27.3-90.4 59.2-3.1 6.9-6.1 16.3-5.3 17 .7.7 9.7-4 22-11.3 15.4-9.2 22.7-12.7 27.7-13.2 4.7-.6 6 0 27.3 11.2 21.5 11.3 40 20.5 41.3 20.5 2.3 0 12.3-5.5 37.5-20.6 27.5-16.5 31.1-18.3 35.2-18.3 3.1 0 6.6 1.5 15 6.4 9 5.2 37.2 20 40.8 21.4 1.6.6-.2-6.7-3.4-13.6-1.6-3.5-2.9-6.5-2.9-6.8 0-.2-2.4-4-5.4-8.4-3-4.5-9.6-12.2-14.7-17.2-9.6-9.4-14.6-12.4-30.9-18.7-7.6-2.9-24-7-33-8.2-10.9-1.4-49.8-1-60.8.6zM448.5 204c-4.4.9-10.2 2.4-13 3.3-2.7.9-12.9 3.7-22.5 6.1-20.3 5.1-22.8 6-23.7 8.1-.3.9-.2 4.8.3 8.6l.9 7.1 5 2.9c2.8 1.5 6.7 3.8 8.7 4.9 2.1 1.1 7.8 4.5 12.7 7.5C427 258.6 457 274 458.8 274c.9 0 1.2-9.1 1.2-36 0-33.7-.1-36-1.7-35.9-1 .1-5.4.9-9.8 1.9zM41.3 208.3c-.7 1.2-.6 69.8.2 70.5.6.7 19.2-8.8 33.9-17.3 3.7-2.2 12.2-6.8 18.8-10.2 17.3-9 16.4-8.1 17.8-16.2.7-3.8 1.1-7.5.8-8.3-.6-1.5-7.5-3.8-23-7.4-15.3-3.6-24.3-5.8-37.1-9.2-6.9-1.9-11-2.6-11.4-1.9z"/><path d="M308 216.4c-4.7 2.8-11.9 7.4-16 10.1-4.1 2.7-10 6.3-13 8-9 5.1-17.9 10.9-18 11.7 0 .9 8.2 6.7 13.5 9.4 26.7 13.9 39.3 20.8 48 26.1 1.1.7 9.7 5.5 19 10.7 9.4 5.2 19.5 10.8 22.5 12.6 10.8 6.1 8.9 5.8 47.9 6.4 19.9.3 38.9.3 42.2-.1l5.9-.6v-10.3c0-12.2.1-12.1-13.3-19.2-13-6.9-30.1-16.4-31.7-17.8-.8-.6-5.5-3.3-10.4-5.9-4.9-2.5-10.8-5.9-13-7.4-2.3-1.6-9.5-5.7-16.1-9.1-6.6-3.4-13.3-7.1-15-8-1.6-1-8.6-4.7-15.5-8.3-6.9-3.6-15.4-8.1-19-10.1-3.6-1.9-7.2-3.5-8-3.5-.8.1-5.3 2.4-10 5.3zM164.8 225.7c-8.4 4.7-19.1 10.4-23.8 12.7-7 3.4-20.1 10.5-27 14.6-3.2 1.9-44.7 24.8-52.9 29.1-4.7 2.6-11.1 6-14.1 7.6l-5.5 3-.3 8.3c-.2 5 .1 8.7.8 9.4 1.2 1.2 312 1.6 312 .4 0-.5-4.2-2.8-9.2-5.3-5.1-2.5-12.7-6.5-16.8-8.9-4.1-2.5-9.5-5.5-12-6.9-9.6-5-20.7-11.1-24.2-13.4-2.1-1.2-4-2.3-4.3-2.3-.3 0-7.6-4-16.3-8.8-8.6-4.9-17-9.6-18.7-10.4-16.6-8.4-60.7-31.3-67.2-34.8l-5.2-2.8-15.3 8.5zM40.6 326.6c-.3 3-.3 7.9 0 10.9.5 4.4 1 5.5 2.5 5.5 1 0 5.3 1.1 9.6 2.5s9.9 2.5 12.4 2.5c5.4 0 14.7-2.7 24-6.9 3.5-1.6 12-4.8 18.9-7.1 11.3-3.8 13.4-4.3 22-4.3 10 .1 12.6.7 41.8 10.7 11.9 4 21.9 5.8 33.1 5.8 10.1 0 19-2.4 41.6-11 14.4-5.5 30.8-9.3 40-9.3 10 0 28.5 4.6 38.6 9.6 7.9 3.9 15.4 6.1 24.5 7 7.7.9 18.9-1.3 33.8-6.7 6.1-2.2 13.1-4.6 15.6-5.4 6.9-2.1 23.3-7.5 25.5-8.4 1.1-.5-84.7-.8-190.6-.8l-192.7.1-.6 5.3zM452.1 322.9l-4.5.6 5 2.2c6.3 2.9 6.6 2.9 6.2-.4-.3-3.1-.7-3.2-6.7-2.4z"/><path d="M424 338c-1.4.6-5.6 2.1-9.5 3.4-3.8 1.2-14.4 4.9-23.5 8.1-21.1 7.4-29.5 8.8-44.3 7.4-12-1.1-17.7-2.3-21.7-4.5-10.5-5.8-26.1-10.3-38.1-11.1-10.7-.7-18.7 1.5-50.4 13.7-12 4.6-19 6-30.4 6-14.1-.1-30.2-3.6-52.5-11.5-7-2.5-15.7-5-19.4-5.5-6-1-7.7-.8-15.7 1.4-4.9 1.3-15.1 5-22.5 8-16.8 7-23.8 8.9-31.5 8.7-6.1-.2-14.6-2.2-19.2-4.6-4.7-2.5-5.6-.5-4.8 9.9.4 5 1.2 9.7 1.8 10.5 2.9 3.5 16.6 10.1 21.2 10.1 1.7 0 20.1-7.2 25.8-10.1 1-.5 3.9-1.8 6.5-2.9 2.6-1 8.5-3.5 13.2-5.5 7.2-3.1 9.9-3.8 18-4.2 5.2-.3 11.3 0 13.5.5 10 2.6 19.2 5.5 29.7 9.6 21.6 8.4 35.4 9.8 50.3 5.2 7.8-2.4 28.4-9.9 35.5-12.9 1.9-.8 8.5-2.7 14.5-4.2 17-4.2 28.7-2.9 46.1 5.1 4.4 2 11.7 5 16.4 6.7 7.5 2.7 9.8 3.1 19.5 3.1 11.8 0 22.5-1.9 33-6 3.3-1.2 10.5-3.9 16-5.9 5.5-2.1 10.8-4.1 11.7-4.6.9-.5 5.4-1.6 10-2.5 9.9-1.9 16.6-1.3 24.3 2.1 3.1 1.3 7.1 2.7 9 3.1l3.5.6v-10c0-9.8-.1-10.1-2.7-12-1.6-1.1-4.9-2.7-7.5-3.6-5.7-1.9-22.3-2.9-25.8-1.6z"/><path d="M423.1 375c-3 .5-7.5 1.7-10 2.8-13.9 6-30.1 11.2-43.1 13.8-6.4 1.3-11.3 1.5-20 1.1-13.8-.7-21.3-2.5-32.4-7.8-14.8-7-40.6-8.8-54.4-3.8-3.1 1.1-8.3 2.9-11.5 4-6.3 2-27.2 10.1-32.2 12.4-4.5 2-17.8 3.3-24.8 2.3-7.3-1-17.9-4.3-31.1-9.8-27.8-11.6-41.5-11.7-64.6-.7-4.7 2.2-10.5 4.7-12.9 5.6-5.7 2.1-6.1 3.6-1.6 5.1 2 .7 5.5 2.3 7.8 3.6 5.4 3.1 7.8 3 18.7-.6 10.3-3.4 20.1-3.9 28.5-1.5 9 2.6 17.8 5.3 29.9 9.4 16.1 5.4 26.5 7.5 34.4 6.8 5.9-.6 37.2-10.5 46.8-14.8 5.6-2.5 18.7-6 25.9-7 10.7-1.4 29.9 2.7 42 8.9 11.8 6 12.7 6.2 28.9 6.2 18.4 0 24.6-1 36.7-5.6 28.7-10.9 28.1-10.7 44.9-11.4 13.4-.5 16.2-.9 20.5-2.9 8.6-4.1 10.7-5.9 10.3-9.5l-.3-3.1-11-2.2c-11.7-2.3-16.7-2.5-25.4-1.3z"/><path d="M269 414.4c-4.7 1.2-9.4 2.7-10.5 3.4-1.1.6-4.7 1.9-8 3-3.3 1-11.6 3.7-18.5 6-25.5 8.3-26.4 8.5-34.8 7.9-7.5-.5-23.4-5.5-50.2-15.7-12.6-4.8-15.3-5.3-22.5-4.5-9.7 1-9.1 1.8 5.7 7.9 4.5 1.9 11.5 4.8 15.3 6.4 43.2 18.4 53.3 22.2 59.2 22.2 4.8 0 12.3-2 21.8-5.8 21.3-8.6 26.7-10.5 33.4-11.7 4.2-.8 10.1-1.5 13.2-1.5 11.8 0 29.8 4.7 41.2 10.8 10.8 5.8 12.6 5.6 30.2-2.8 5.5-2.7 11.1-5.1 12.5-5.5 1.4-.4 3.5-1.3 4.7-2.1 1.2-.8 4.4-2.1 6.9-3 5-1.7 12.9-6.2 12.1-7-.2-.2-3.6.2-7.5 1-14.5 3.1-28.5 4.1-38.8 2.8-5.3-.7-11.1-1.9-12.8-2.6-24.7-11.2-37-13.4-52.6-9.2z"/><path d="M250.7 449c-4.8 1.6-9.3 3.3-10 3.8-.7.5-4.5 2.2-8.4 3.8-4 1.6-7.3 3.1-7.3 3.4 0 1 7.8 3.9 14.5 5.3 16.2 3.5 23.8 3.2 41-1.8 4.4-1.3 9.7-2.6 11.7-2.9 2-.4 6-1.4 9-2.2l5.3-1.6-8.5-4c-11.6-5.4-17.8-6.8-29-6.7-7.6 0-11.2.6-18.3 2.9z"/></svg><svg viewBox="0 0 512 512" id="pin" xmlns="http://www.w3.org/2000/svg"><path d="M407.579 87.677C376.506 34.053 321.314 1.292 259.939.04c-2.62-.054-5.257-.054-7.878 0-61.374 1.252-116.566 34.013-147.64 87.637-31.762 54.812-32.631 120.652-2.325 176.123l126.963 232.387c.057.103.114.206.173.308 5.586 9.709 15.593 15.505 26.77 15.505 11.176 0 21.183-5.797 26.768-15.505.059-.102.116-.205.173-.308L409.906 263.8c30.304-55.471 29.435-121.311-2.327-176.123zM256 232c-39.701 0-72-32.299-72-72s32.299-72 72-72 72 32.299 72 72-32.298 72-72 72z"/></svg><svg viewBox="-31 0 512 512" id="video" xmlns="http://www.w3.org/2000/svg"><g fill-rule="evenodd"><path d="M440.59 206.676H99.418l327.7-94.93a10.018 10.018 0 005.976-4.781 9.989 9.989 0 00.847-7.606L416.793 40.16C409.941 16.516 387.926 0 363.253 0c-5.198 0-10.378.738-15.401 2.191L40.176 91.321c-14.23 4.12-26.024 13.581-33.215 26.632-7.188 13.05-8.875 28.078-4.754 42.305l16.754 57.836v238.254C18.96 487.035 43.926 512 74.609 512h120.164c5.524 0 10-4.477 10-10s-4.476-10-10-10H74.613c-19.66 0-35.652-15.992-35.652-35.652V320.262H430.589v136.086c0 19.66-15.991 35.652-35.651 35.652H274.773c-5.52 0-10 4.477-10 10s4.48 10 10 10h120.165c30.687 0 55.652-24.965 55.652-55.652V216.676c0-5.524-4.477-10-10-10zm-176.332 93.586l42.488-73.586h55.262l-42.485 73.586zm-78.36 0l42.489-73.586h55.261l-42.484 73.586zm-78.355 0l42.484-73.586h55.266l-42.488 73.586zm37.18-129.457l-71.149-68.336 53.309-15.442a9.92 9.92 0 001.312 1.543l71.149 68.336-53.309 15.442a9.951 9.951 0 00-1.312-1.543zm134-125.84L349.87 113.3l-53.308 15.441a9.742 9.742 0 00-1.313-1.543l-71.148-68.336 53.308-15.441a9.92 9.92 0 001.313 1.543zM203.457 66.77l71.148 68.332-53.308 15.445a9.742 9.742 0 00-1.313-1.543l-71.148-68.336 53.309-15.441c.378.543.816 1.062 1.312 1.543zm149.961-45.368c3.21-.93 6.52-1.402 9.836-1.402 15.824 0 29.937 10.578 34.328 25.727l14.367 49.59-40.12 11.62a10.165 10.165 0 00-1.317-1.542l-71.145-68.333zM24.48 127.602c4.61-8.372 12.16-14.434 21.262-17.07l5.875-1.704a10.17 10.17 0 001.313 1.543l71.148 68.336-88.293 25.578-14.367-49.59c-2.637-9.097-1.547-18.718 3.062-27.093zm14.48 99.074h87.974l-42.485 73.586H38.961zm303.657 73.586l42.485-73.586h45.488v73.586zm0 0"/><path d="M303.922 405.113a9.997 9.997 0 00-5-8.66l-87.856-50.723a10.006 10.006 0 00-10 0 9.997 9.997 0 00-5 8.66v101.446a9.995 9.995 0 005 8.656 9.983 9.983 0 0010 0l87.856-50.719a9.997 9.997 0 005-8.66zm-87.856 33.403V371.71l57.856 33.402zm0 0M234.773 492c-5.507 0-10 4.492-10 10s4.493 10 10 10c5.512 0 10-4.492 10-10s-4.488-10-10-10zm0 0"/></g></svg><svg viewBox="0 0 512 512" id="whatsapp" xmlns="http://www.w3.org/2000/svg"><path d="M256.064 0h-.128C114.784 0 0 114.816 0 256c0 56 18.048 107.904 48.736 150.048l-31.904 95.104 98.4-31.456C155.712 496.512 204 512 256.064 512 397.216 512 512 397.152 512 256S397.216 0 256.064 0zm148.96 361.504c-6.176 17.44-30.688 31.904-50.24 36.128-13.376 2.848-30.848 5.12-89.664-19.264-75.232-31.168-123.68-107.616-127.456-112.576-3.616-4.96-30.4-40.48-30.4-77.216s18.656-54.624 26.176-62.304c6.176-6.304 16.384-9.184 26.176-9.184 3.168 0 6.016.16 8.576.288 7.52.32 11.296.768 16.256 12.64 6.176 14.88 21.216 51.616 23.008 55.392 1.824 3.776 3.648 8.896 1.088 13.856-2.4 5.12-4.512 7.392-8.288 11.744-3.776 4.352-7.36 7.68-11.136 12.352-3.456 4.064-7.36 8.416-3.008 15.936 4.352 7.36 19.392 31.904 41.536 51.616 28.576 25.44 51.744 33.568 60.032 37.024 6.176 2.56 13.536 1.952 18.048-2.848 5.728-6.176 12.8-16.416 20-26.496 5.12-7.232 11.584-8.128 18.368-5.568 6.912 2.4 43.488 20.48 51.008 24.224 7.52 3.776 12.48 5.568 14.304 8.736 1.792 3.168 1.792 18.048-4.384 35.52z"/></svg><svg viewBox="-21 -117 682.667 682" id="youtube" xmlns="http://www.w3.org/2000/svg"><path d="M626.813 64.035c-7.375-27.418-28.993-49.031-56.407-56.414C520.324-6.082 319.992-6.082 319.992-6.082s-200.324 0-250.406 13.184c-26.887 7.375-49.031 29.52-56.406 56.933C0 114.113 0 217.97 0 217.97s0 104.379 13.18 153.933c7.382 27.414 28.992 49.028 56.41 56.41C120.195 442.02 320 442.02 320 442.02s200.324 0 250.406-13.184c27.418-7.379 49.032-28.992 56.414-56.406 13.176-50.082 13.176-153.934 13.176-153.934s.527-104.383-13.183-154.46zM256.21 313.915V122.022l166.586 95.946zm0 0"/></svg></svg>